<svg width="17" height="13" viewBox="0 0 17 13" fill="none" xmlns="http://www.w3.org/2000/svg">
<path d="M15.1066 0.953939C14.8949 0.892125 14.6813 0.837399 14.4659 0.789851C14.2404 0.740277 14.0136 0.697163 13.7857 0.660563C12.9699 0.528521 12.0787 0.46619 11.1217 0.46619H3.04846C2.85579 0.465753 2.66553 0.509016 2.49199 0.592725C2.30327 0.682815 2.13935 0.81755 2.01442 0.985263C1.8895 1.15298 1.80735 1.34861 1.77507 1.55523L0.0590788 12.4355L0.00952148 12.7527C0.122401 12.0367 0.734703 11.5087 1.45989 11.5087H4.48219C10.4178 11.5087 15.0653 9.09778 16.423 2.12359C16.4634 1.91733 16.4973 1.71745 16.5285 1.52043C16.1847 1.33894 15.8125 1.18212 15.4118 1.0492C15.3107 1.01568 15.2089 0.983918 15.1066 0.953939Z" fill="#1F264F"/>
</svg>
